<?xml version="1.0" standalone="no"?>
<!DOCTYPE svg PUBLIC "-//W3C//DTD SVG 20010904//EN"
 "http://www.w3.org/TR/2001/REC-SVG-20010904/DTD/svg10.dtd">
<svg version="1.0" xmlns="http://www.w3.org/2000/svg"
 width="256.000000pt" height="256.000000pt" viewBox="0 0 256.000000 256.000000"
 preserveAspectRatio="xMidYMid meet">
<metadata>
Created by potrace 1.11, written by Peter Selinger 2001-2013
</metadata>
<g transform="translate(0.000000,256.000000) scale(0.100000,-0.100000)"
fill="#000000" stroke="none">
<path d="M1178 2354 c-2 -1 -22 -5 -45 -9 -62 -9 -177 -50 -239 -85 -251 -144
-398 -383 -410 -667 -8 -213 64 -414 204 -571 l39 -43 -38 -72 c-20 -40 -47
-106 -58 -147 -12 -41 -28 -95 -36 -120 -24 -73 -1 -130 62 -157 31 -12 42
-13 78 -1 48 16 45 23 45 -91 1 -61 -2 -76 -20 -91 -11 -9 -20 -20 -20 -24 0
-3 250 -6 555 -6 305 0 555 2 555 5 0 3 -10 16 -23 29 -20 20 -22 31 -20 100
1 43 3 80 6 82 2 3 17 0 32 -6 35 -13 94 2 123 32 26 29 35 78 21 115 -6 15
-21 69 -34 119 -13 50 -41 128 -64 173 l-40 81 24 28 c55 60 88 110 123 182
20 41 37 80 38 85 1 6 10 39 20 75 19 71 25 248 11 334 -38 236 -208 459 -436
576 -96 48 -235 78 -362 78 -49 -1 -90 -2 -91 -4z"/>
</g>
</svg>
